<?xml version="1.0" encoding="utf-8"?>
<!-- Generator: Adobe Illustrator 21.1.0, SVG Export Plug-In . SVG Version: 6.00 Build 0)  -->
<svg version="1.1" id="Layer_1" xmlns="http://www.w3.org/2000/svg" xmlns:xlink="http://www.w3.org/1999/xlink" x="0px" y="0px"
	 viewBox="0 0 452.6 239.4" style="enable-background:new 0 0 452.6 239.4;" xml:space="preserve">
<style type="text/css">
	.st0{fill:#CAC9C5;}
	.st1{fill:#8CC63F;}
</style>
<g>
	<g>
		<path class="st0" d="M20.5,238.4H0v-52.1h20.5c7.4,0,13.5,2.2,18.3,6.5c2.6,2.3,4.5,5.1,5.8,8.4s2,7,2,11.1s-0.7,7.8-2,11.1
			c-1.3,3.3-3.2,6.1-5.8,8.4c-2.3,2.1-5,3.7-8.1,4.8C27.5,237.8,24.1,238.4,20.5,238.4z M9.9,229.6h10.6c1.8,0,3.7-0.2,5.6-0.6
			c1.9-0.4,3.6-1.3,5.2-2.5c1.5-1.3,2.8-3,3.8-5.2s1.5-5.1,1.5-8.7s-0.5-6.5-1.5-8.8s-2.3-4-3.8-5.2c-1.6-1.2-3.3-2.1-5.2-2.5
			s-3.7-0.6-5.5-0.6H10v34.1H9.9z"/>
		<path class="st0" d="M72.7,186.4h-1.2l-26.6,52h12.6h29.1h12.7L72.7,186.4z M63.2,228.1l8.9-18.6l8.8,18.6H63.2z"/>
		<path class="st0" d="M153.8,186.4h-1.2l-26.6,52h12.6h29.1h12.7L153.8,186.4z M144.3,228.1l8.9-18.6l8.8,18.6H144.3z"/>
		<polygon class="st0" points="92.9,186.3 92.9,195.2 107.9,195.2 107.9,238.4 117.8,238.4 117.8,195.2 132.7,195.2 132.7,186.3 		
			"/>
		<path class="st1" d="M243.2,186.4l-19.4,52h-1l-14.1-30.3l-14.2,30.4h-0.9l-19.2-52H185l10.2,28.5l13.2-28.5h0.6l13.2,28.6
			l10.4-28.6h10.6V186.4z"/>
		<path class="st1" d="M271,239.4c-3.7,0-7.2-0.7-10.5-2.1s-6.1-3.4-8.6-5.8c-2.4-2.4-4.4-5.3-5.8-8.6s-2.1-6.8-2.1-10.5
			s0.7-7.2,2.1-10.5s3.4-6.2,5.8-8.6s5.3-4.4,8.6-5.8c3.3-1.4,6.8-2.1,10.5-2.1s7.3,0.7,10.5,2.1c3.3,1.4,6.1,3.4,8.6,5.8
			c2.4,2.4,4.4,5.3,5.8,8.6c1.4,3.3,2.1,6.8,2.1,10.5s-0.7,7.3-2.1,10.5s-3.4,6.1-5.8,8.6c-2.4,2.4-5.3,4.4-8.6,5.8
			C278.2,238.7,274.7,239.4,271,239.4z M271,194.7c-2.4,0-4.6,0.5-6.6,1.5c-2.1,1-3.9,2.3-5.4,3.9s-2.8,3.5-3.7,5.7
			c-0.9,2.2-1.3,4.4-1.3,6.7c0,2.4,0.4,4.6,1.3,6.8s2.1,4,3.7,5.7c1.5,1.6,3.3,2.9,5.4,3.9s4.3,1.5,6.6,1.5c2.4,0,4.6-0.5,6.6-1.5
			c2.1-1,3.9-2.3,5.4-3.9s2.8-3.5,3.7-5.7c0.9-2.1,1.3-4.4,1.3-6.8c0-2.3-0.4-4.6-1.3-6.7c-0.9-2.2-2.1-4-3.7-5.7
			c-1.5-1.6-3.3-2.9-5.4-3.9C275.6,195.1,273.4,194.7,271,194.7z"/>
		<path class="st1" d="M316.8,238.4h-10v-52.1h23.6c2.7,0,5.1,0.4,7.3,1.3s4.1,2.1,5.7,3.7c1.6,1.6,2.8,3.5,3.7,5.7s1.3,4.6,1.3,7.2
			c0,3.9-1,7.4-3,10.3s-4.6,5-7.9,6.3c4.4,5.8,8.7,11.6,13,17.5h-11.9c-2.1-2.7-4.1-5.4-6.1-8.2c-2-2.7-4-5.5-6-8.4h-9.9v16.7H316.8
			z M316.8,213h13.7c0.9,0,1.8-0.2,2.8-0.5c1-0.4,1.8-0.9,2.6-1.6s1.4-1.6,1.9-2.7s0.7-2.4,0.7-3.8c0-0.8-0.1-1.7-0.3-2.7
			s-0.6-2-1.1-3s-1.4-1.8-2.4-2.4c-1-0.7-2.4-1-4.2-1h-13.7V213z"/>
		<path class="st1" d="M389.8,238.4L368,214.7v23.7h-10v-52.1h10v26.5l20.7-26.4h12.2l-21.4,26.9l23.5,25.1H389.8z"/>
		<path class="st1" d="M452.6,187.6l-29,41.5h28v9.2h-45.5v-1.1l29.1-41.7h-26.9v-9.2h44.3L452.6,187.6L452.6,187.6z"/>
	</g>
	<g>
		<path class="st0" d="M139.7,86.6c0,35.7,21.7,66.4,52.7,79.6c5.6,2.4,11.5,4.2,17.6,5.4v-18V19.5v-18c-6.1,1.2-12,3-17.6,5.4
			C161.5,20.1,139.7,50.9,139.7,86.6z M192.4,146.6c-20.9-11.8-35.1-34.3-35.1-60.1c0-25.7,14.2-48.2,35.1-60.1V146.6z"/>
		<path class="st1" d="M286.5,24.5V53c5.6,10,8.8,21.4,8.8,33.6c0,19.6-8.2,37.3-21.3,49.8V61.9c-5.5-2.5-11.3-4.6-17.6-6.2v92.9
			c-6,2.9-12.6,5-19.4,6.1V18.4V0.7c-3.5-0.4-7-0.7-10.7-0.7c-2.3,0-4.6,0.1-6.9,0.3v17.6v137.3v17.6c2.3,0.2,4.6,0.3,6.9,0.3
			c3.6,0,7.2-0.2,10.7-0.7c6.7-0.8,13.3-2.4,19.4-4.7c6.2-2.3,12.1-5.3,17.6-9c23.4-15.5,38.9-42.1,38.9-72.2
			C312.8,62.2,302.7,40.2,286.5,24.5z"/>
	</g>
</g>
</svg>
