<?xml version="1.0" encoding="utf-8"?>
<!-- Generator: Adobe Illustrator 21.0.0, SVG Export Plug-In . SVG Version: 6.00 Build 0)  -->
<svg version="1.1" id="Layer_1" xmlns="http://www.w3.org/2000/svg" xmlns:xlink="http://www.w3.org/1999/xlink" x="0px" y="0px"
	 viewBox="0 0 800 600" enable-background="new 0 0 800 600" xml:space="preserve">
<g>
	<g>
		<path fill="#CAC9C5" d="M213.4,418.7h-20.5v-52.1h20.5c7.4,0,13.5,2.2,18.3,6.5c2.6,2.3,4.5,5.1,5.8,8.4c1.3,3.3,2,7,2,11.1
			c0,4.1-0.7,7.8-2,11.1c-1.3,3.3-3.2,6.1-5.8,8.4c-2.3,2.1-5,3.7-8.1,4.8C220.4,418.1,217,418.7,213.4,418.7z M202.8,409.9h10.6
			c1.8,0,3.7-0.2,5.6-0.6c1.9-0.4,3.6-1.3,5.2-2.5c1.5-1.3,2.8-3,3.8-5.2c1-2.2,1.5-5.1,1.5-8.7c0-3.6-0.5-6.5-1.5-8.8
			c-1-2.3-2.3-4-3.8-5.2c-1.6-1.2-3.3-2.1-5.2-2.5c-1.9-0.4-3.7-0.6-5.5-0.6h-10.6V409.9z"/>
		<path fill="#CAC9C5" d="M265.6,366.7h-1.2l-26.6,52h12.6h29.1h12.7L265.6,366.7z M256.1,408.4l8.9-18.6l8.8,18.6H256.1z"/>
		<path fill="#CAC9C5" d="M346.7,366.7h-1.2l-26.6,52h12.6h29.1h12.7L346.7,366.7z M337.2,408.4l8.9-18.6l8.8,18.6H337.2z"/>
		<polygon fill="#CAC9C5" points="285.8,366.6 285.8,375.5 300.8,375.5 300.8,418.7 310.7,418.7 310.7,375.5 325.6,375.5 
			325.6,366.6 		"/>
		<path fill="#8CC63F" d="M436.1,366.7l-19.4,52h-1l-14.1-30.3l-14.2,30.4h-0.9l-19.2-52h10.6l10.2,28.5l13.2-28.5h0.6l13.2,28.6
			l10.4-28.6H436.1z"/>
		<path fill="#8CC63F" d="M463.9,419.7c-3.7,0-7.2-0.7-10.5-2.1c-3.3-1.4-6.1-3.4-8.6-5.8c-2.4-2.4-4.4-5.3-5.8-8.6
			s-2.1-6.8-2.1-10.5c0-3.7,0.7-7.2,2.1-10.5c1.4-3.3,3.4-6.2,5.8-8.6c2.4-2.4,5.3-4.4,8.6-5.8c3.3-1.4,6.8-2.1,10.5-2.1
			c3.7,0,7.3,0.7,10.5,2.1c3.3,1.4,6.1,3.4,8.6,5.8c2.4,2.4,4.4,5.3,5.8,8.6c1.4,3.3,2.1,6.8,2.1,10.5c0,3.7-0.7,7.3-2.1,10.5
			s-3.4,6.1-5.8,8.6c-2.4,2.4-5.3,4.4-8.6,5.8C471.1,419,467.6,419.7,463.9,419.7z M463.9,375c-2.4,0-4.6,0.5-6.6,1.5
			c-2.1,1-3.9,2.3-5.4,3.9c-1.5,1.6-2.8,3.5-3.7,5.7c-0.9,2.2-1.3,4.4-1.3,6.7c0,2.4,0.4,4.6,1.3,6.8s2.1,4,3.7,5.7
			c1.5,1.6,3.3,2.9,5.4,3.9c2.1,1,4.3,1.5,6.6,1.5c2.4,0,4.6-0.5,6.6-1.5c2.1-1,3.9-2.3,5.4-3.9c1.5-1.6,2.8-3.5,3.7-5.7
			c0.9-2.1,1.3-4.4,1.3-6.8c0-2.3-0.4-4.6-1.3-6.7c-0.9-2.2-2.1-4-3.7-5.7c-1.5-1.6-3.3-2.9-5.4-3.9
			C468.5,375.4,466.3,375,463.9,375z"/>
		<path fill="#8CC63F" d="M509.7,418.7h-10v-52.1h23.6c2.7,0,5.1,0.4,7.3,1.3c2.2,0.9,4.1,2.1,5.7,3.7c1.6,1.6,2.8,3.5,3.7,5.7
			c0.9,2.2,1.3,4.6,1.3,7.2c0,3.9-1,7.4-3,10.3c-2,2.9-4.6,5-7.9,6.3c4.4,5.8,8.7,11.6,13,17.5h-11.9c-2.1-2.7-4.1-5.4-6.1-8.2
			c-2-2.7-4-5.5-6-8.4h-9.9V418.7z M509.7,393.3h13.7c0.9,0,1.8-0.2,2.8-0.5c1-0.4,1.8-0.9,2.6-1.6c0.8-0.7,1.4-1.6,1.9-2.7
			c0.5-1.1,0.7-2.4,0.7-3.8c0-0.8-0.1-1.7-0.3-2.7c-0.2-1-0.6-2-1.1-3s-1.4-1.8-2.4-2.4c-1-0.7-2.4-1-4.2-1h-13.7V393.3z"/>
		<path fill="#8CC63F" d="M582.7,418.7L560.9,395v23.7h-10v-52.1h10v26.5l20.7-26.4h12.2l-21.4,26.9l23.5,25.1H582.7z"/>
		<path fill="#8CC63F" d="M645.5,367.9l-29,41.5h28v9.2H599v-1.1l29.1-41.7h-26.9v-9.2h44.3V367.9z"/>
	</g>
	<g>
		<path fill="#CAC9C5" d="M332.6,266.9c0,35.7,21.7,66.4,52.7,79.6c5.6,2.4,11.5,4.2,17.6,5.4v-18V199.8v-18c-6.1,1.2-12,3-17.6,5.4
			C354.4,200.4,332.6,231.2,332.6,266.9z M385.3,326.9c-20.9-11.8-35.1-34.3-35.1-60.1c0-25.7,14.2-48.2,35.1-60.1V326.9z"/>
		<path fill="#8CC63F" d="M479.4,204.8v28.5c5.6,10,8.8,21.4,8.8,33.6c0,19.6-8.2,37.3-21.3,49.8v-74.5c-5.5-2.5-11.3-4.6-17.6-6.2
			v92.9c-6,2.9-12.6,5-19.4,6.1V198.7V181c-3.5-0.4-7-0.7-10.7-0.7c-2.3,0-4.6,0.1-6.9,0.3v17.6v137.3v17.6c2.3,0.2,4.6,0.3,6.9,0.3
			c3.6,0,7.2-0.2,10.7-0.7c6.7-0.8,13.3-2.4,19.4-4.7c6.2-2.3,12.1-5.3,17.6-9c23.4-15.5,38.9-42.1,38.9-72.2
			C505.7,242.5,495.6,220.5,479.4,204.8z"/>
	</g>
</g>
</svg>
